<?xml version="1.0" encoding="UTF-8"?>
<svg id="Layer_3" xmlns="http://www.w3.org/2000/svg" version="1.1" viewBox="0 0 4000 2250">
  <!-- Generator: Adobe Illustrator 29.0.0, SVG Export Plug-In . SVG Version: 2.1.0 Build 186)  -->
  <rect x="0" y="0" width="4000" height="2250" fill="#694b94"/>
  <polygon points="3726.72 573.99 3739.48 683.91 3849.4 696.67 3739.48 709.44 3726.72 819.36 3713.95 709.44 3604.03 696.67 3713.95 683.91 3726.72 573.99" fill="#fef6e6"/>
  <polygon points="2178.13 1322.57 2188.01 1407.69 2273.13 1417.57 2188.01 1427.46 2178.13 1512.57 2168.25 1427.46 2083.13 1417.57 2168.25 1407.69 2178.13 1322.57" fill="#fef6e6"/>
  <polygon points="2724.15 2040.23 2729.75 2088.44 2777.97 2094.04 2729.75 2099.64 2724.15 2147.86 2718.55 2099.64 2670.34 2094.04 2718.55 2088.44 2724.15 2040.23" fill="#fef6e6"/>
  <path d="M834.44,1553.83c-58.3,102.37,50.01,224.18-14.46,293.73-65.9,71.08-207.22-25.33-266.91,42.3-56.64,64.19,51.3,172.68,57.92,341.53.24,6.25.34,12.46.29,18.61H0v-318.18c33.07,4.4,63.96,1.48,89.61-16.21,105.18-72.55-40.39-283.07,61.75-367.07,106.36-87.46,320.45,95.68,442.37,4.62,86.55-64.64,22.54-189.48,118.66-255.34,73.85-50.59,134.87-24.42,209.82-52.53,73.5-27.56,229.69-149.31,211.31-68.9,4.58,77.76-237.67,269.62-299.08,377.44Z" fill="#fbd996"/>
  <polygon points="1701.62 1101.09 1679.13 863.35 1436.64 1089.12 1528.12 1270.71 1701.62 1101.09" fill="#fef6e6"/>
  <path d="M1631.73,1128.45l-136.78,127.35c.29,5.33,1.45,19.39,8.3,35.8,4.19,10.06,10.53,21,20.1,31.35,9.77,10.55,20.42,17.81,30.31,22.79,15.93,8.04,29.91,10.19,35.13,10.84,45.59-42.45,91.19-84.9,136.78-127.35l-21.71-23.33-50.42-54.14-21.71-23.33Z" fill="#46c6bf"/>
  <path d="M1653.44,1151.78l-150.19,139.83c4.19,10.06,10.53,21,20.1,31.35,9.77,10.55,20.42,17.81,30.31,22.79,50.07-46.61,100.13-93.23,150.2-139.84l-50.42-54.14Z" fill="#29b1aa"/>
  <path d="M1882.12,989.29c-5.34.79-10.4,1.94-15.56,3.15-87.96,22.46-166.73,73.19-232.92,133.91,0,0-1.66,1.53-1.66,1.53-.29.27-.59.5-.67.94-.14.44-.03,1.35.17,2.05.19.77.58,1.65.9,2.42.06.15.3.65.39.83.42.88.99,1.96,1.48,2.83,1.19,2.14,2.86,4.68,4.17,6.76.86,1.27,2.56,3.76,3.43,5.02,1.34,1.84,2.88,4.07,4.23,5.89,3.23,4.43,7.3,9.65,10.64,14.01,4.32,5.51,9.64,12.14,14.15,17.57,5.08,4.82,11.25,10.57,16.41,15.24,4.12,3.63,9.02,8.08,13.22,11.61,1.72,1.48,3.83,3.18,5.58,4.64,1.22.98,3.55,2.8,4.77,3.77,1.98,1.45,4.39,3.3,6.44,4.64.79.51,1.9,1.23,2.72,1.68,0,0,.42.25.42.25.07.04.14.08.2.11,0,0,.18.09.18.09.67.34,1.63.84,2.35,1.07.66.24,1.59.44,2.03.32.44-.05.69-.32.98-.6,0,0,1.65-1.54,1.65-1.54,65.29-61.69,121.5-136.64,150.18-222.77,0,0,.77-2.48.77-2.48,0,0,.38-1.24.38-1.24,0,0,.37-1.26.37-1.26.99-3.35,1.93-6.75,2.73-10.31,0,0-.11-.12-.11-.12h0Z" fill="#fbd996"/>
  <polygon points="1209.52 613.76 1445.17 652.44 1203.36 878.93 1028.44 775.26 1209.52 613.76" fill="#fef6e6"/>
  <path d="M1185.25,1244.45c-13.04-1.61-60.43-9.04-99.29-50.26-39.32-41.71-43.64-90.15-44.39-103.14,69.39-64.99,138.78-129.99,208.18-194.98l143.68,153.4-208.18,194.98Z" fill="#54c1bb"/>
  <path d="M1296.52,1193.1c-17.83-2.2-82.61-12.35-135.74-68.71-53.75-57.02-59.67-123.24-60.68-141,94.86-88.85,189.73-177.71,284.59-266.56l196.42,209.71-284.59,266.56Z" fill="#fbd996"/>
  <path d="M1769.1,812.92l-374.89,351.12c-14.78-1.82-54.08-7.79-98.63-30.49-26.21-13.36-54.24-32.51-80.18-60.01-26.47-28.08-44.14-57.85-55.94-85.35-19.79-46.06-23.16-85.74-24-100.4,124.97-117.04,249.94-234.09,374.9-351.13l61.31,65.46,136.13,145.34,61.31,65.46Z" fill="#29b1aa"/>
  <path d="M1707.8,747.47l-412.22,386.09c-26.21-13.36-54.24-32.51-80.18-60.01-26.47-28.08-44.14-57.85-55.94-85.35,137.41-128.69,274.8-257.38,412.2-386.07l136.13,145.34Z" fill="#54c1bb"/>
  <path d="M1177.45,681.61l-136.4,127.76c-5.3-.66-19.25-2.77-35.15-10.73-9.75-4.87-20.23-11.94-29.9-22.19-9.86-10.47-16.38-21.59-20.67-31.8-6.93-16.44-8.12-30.54-8.42-35.79,45.47-42.58,90.93-85.17,136.4-127.76l21.79,23.26,50.57,54,21.79,23.26Z" fill="#46c6bf"/>
  <path d="M1155.66,658.35l-149.77,140.28c-9.75-4.87-20.23-11.94-29.9-22.19-9.86-10.47-16.38-21.59-20.67-31.8,49.92-46.76,99.85-93.53,149.77-140.29l50.57,54Z" fill="#29b1aa"/>
  <path d="M2197.7,152.5c-3.17,14.49-7.28,28.16-11.56,42.08-78.11,236.96-232,443.42-410.93,613.5,0,0-4.51,4.25-4.51,4.25-.8.75-1.49,1.52-2.7,1.65-1.24.3-3.71-.17-5.59-.86-2.09-.66-4.43-1.91-6.46-2.93-.41-.19-1.74-.93-2.2-1.22-2.32-1.31-5.19-3.09-7.49-4.59-5.64-3.66-12.3-8.73-17.74-12.7-3.33-2.6-9.84-7.74-13.13-10.34-4.8-4.02-10.62-8.65-15.36-12.72-11.54-9.68-25.09-21.82-36.41-31.79-14.29-12.89-31.49-28.73-45.53-42.09-12.27-14.84-26.88-32.83-38.71-47.85-9.17-11.97-20.47-26.26-29.34-38.42-3.74-4.99-8.01-11.11-11.68-16.16-2.46-3.53-7.02-10.25-9.45-13.78-3.6-5.69-8.23-12.65-11.52-18.53-1.24-2.26-3.02-5.45-4.09-7.77,0,0-.6-1.2-.6-1.2-.11-.21-.19-.39-.26-.56,0,0-.22-.52-.22-.52-.8-1.9-2.01-4.62-2.5-6.64-.52-1.86-.9-4.43-.49-5.63.22-1.19,1.01-1.84,1.83-2.58,0,0,4.54-4.23,4.54-4.23,181.41-167.43,397.49-307.49,639.05-369.95,0,0,6.96-1.64,6.96-1.64,0,0,3.48-.82,3.48-.82,0,0,3.52-.77,3.52-.77,9.37-2.09,18.88-4.03,28.79-5.54,0,0,.31.34.31.34h0Z" fill="#facf7c"/>
  <path d="M1333.4,441.31c-1.15,5.27-2.65,10.25-4.21,15.31-28.42,86.22-84.41,161.34-149.52,223.22,0,0-1.64,1.55-1.64,1.55-.29.27-.54.55-.98.6-.45.11-1.35-.06-2.03-.31-.76-.24-1.61-.7-2.35-1.06-.15-.07-.63-.34-.8-.44-.84-.48-1.89-1.13-2.72-1.67-2.05-1.33-4.48-3.18-6.45-4.62-1.21-.95-3.58-2.81-4.78-3.76-1.75-1.46-3.87-3.15-5.59-4.63-4.2-3.52-9.13-7.94-13.25-11.57-5.2-4.69-11.46-10.45-16.57-15.31-4.46-5.4-9.78-11.95-14.08-17.41-3.34-4.36-7.45-9.55-10.68-13.98-1.36-1.82-2.91-4.04-4.25-5.88-.9-1.28-2.56-3.73-3.44-5.01-1.31-2.07-3-4.6-4.19-6.74-.45-.82-1.1-1.98-1.49-2.83,0,0-.22-.44-.22-.44-.04-.08-.07-.14-.09-.2,0,0-.08-.19-.08-.19-.29-.69-.73-1.68-.91-2.41-.19-.68-.33-1.61-.18-2.05.08-.43.37-.67.67-.94,0,0,1.65-1.54,1.65-1.54,66.01-60.92,144.63-111.88,232.52-134.61,0,0,2.53-.6,2.53-.6,0,0,1.27-.3,1.27-.3,0,0,1.28-.28,1.28-.28,3.41-.76,6.87-1.47,10.48-2.02,0,0,.11.12.11.12h0Z" fill="#fbd996"/>
  <circle cx="1799.75" cy="536.34" r="125.83" fill="#fef6e6"/>
  <path d="M1863.41,604.29c-12.94,12.12-28.42,19.83-44.59,23.2-5.5,1.14-11.07,1.79-16.65,1.93-6.26.16-12.52-.31-18.69-1.4-19.13-3.38-37.37-12.76-51.68-28.03-.61-.66-1.22-1.32-1.8-1.99-33.27-37.6-30.77-95.08,6.11-129.62,11.3-10.59,24.55-17.82,38.5-21.72,20.17-5.64,41.82-4.33,61.21,3.81,5.72,2.39,11.24,5.38,16.46,8.96,4.55,3.11,8.88,6.67,12.93,10.69.85.83,1.68,1.68,2.5,2.56,35.16,37.54,33.23,96.46-4.3,131.61Z" fill="#8f74b4"/>
  <path d="M1037.1,1428.36s-91.87,84.57-64.31,175.54c27.56,90.97,103.36,47.92,80.39-41.95-22.97-89.87-16.08-133.59-16.08-133.59Z" fill="#fbd996"/>
  <path d="M561.05,1366.59s-62.99,107.82-157.75,100.34c-94.76-7.49-68.9-90.73,23.81-87.5,92.71,3.24,133.94-12.84,133.94-12.84Z" fill="#fbd996"/>
  <path d="M811.86,1176.79c-7.84,0-14.5,6.66-14.5,14.5s6.64,14.5,14.5,14.5,14.5-6.66,14.5-14.5-6.64-14.5-14.5-14.5Z" fill="#fbd996"/>
  <path d="M1171.86,1403.07c-7.84,0-14.5,6.66-14.5,14.5s6.64,14.5,14.5,14.5,14.5-6.66,14.5-14.5-6.64-14.5-14.5-14.5Z" fill="#fbd996"/>
  <path d="M999.57,1721.93c-7.84,0-14.5,6.66-14.5,14.5s6.64,14.5,14.5,14.5,14.5-6.66,14.5-14.5-6.64-14.5-14.5-14.5Z" fill="#fbd996"/>
  <path d="M685.86,2048.5c-7.84,0-14.5,6.66-14.5,14.5s6.64,14.5,14.5,14.5,14.5-6.66,14.5-14.5-6.64-14.5-14.5-14.5Z" fill="#fbd996"/>
  <path d="M269.29,1415.93c-7.84,0-14.5,6.66-14.5,14.5s6.64,14.5,14.5,14.5,14.5-6.66,14.5-14.5-6.64-14.5-14.5-14.5Z" fill="#fbd996"/>
  <path d="M155.43,1404.71c-.61-13.55-10.98-25-25-25-13.08,0-25.6,11.5-25,25,.61,13.55,10.98,25,25,25,13.08,0,25.6-11.5,25-25Z" fill="#fbd996"/>
  <path d="M901.14,1949.86c-.61-13.54-10.98-25-25-25-13.08,0-25.6,11.5-25,25,.61,13.55,10.98,25,25,25,13.08,0,25.6-11.5,25-25Z" fill="#fbd996"/>
  <path d="M669.71,1214.43c-.61-13.55-10.98-25-25-25-13.08,0-25.6,11.5-25,25,.61,13.54,10.98,25,25,25,13.08,0,25.6-11.5,25-25Z" fill="#fbd996"/>
  <path d="M1835.82,450.47l-52.34,177.55c-19.13-3.38-37.37-12.76-51.68-28.03-.61-.66-1.22-1.32-1.8-1.99l44.61-151.34c20.17-5.64,41.82-4.33,61.21,3.81Z" fill="#a590c3"/>
  <path d="M1865.21,470.12l-46.39,157.37c-5.5,1.14-11.07,1.79-16.65,1.93l50.11-169.99c4.55,3.11,8.88,6.67,12.93,10.69Z" fill="#a590c3"/>
  <g>
    <g>
      <circle cx="3191.28" cy="1442.7" r="671.02" fill="#f5cf9f"/>
      <circle cx="3145.09" cy="1396.5" r="581.63" fill="#f8e0c2"/>
      <path d="M3089.03,1575.33c0,73.25-59.35,132.6-132.6,132.6s-132.63-59.35-132.63-132.6,59.38-132.63,132.63-132.63c3.4,0,6.74.13,10.08.39-58.15,4.73-103.85,53.45-103.85,112.83,0,62.49,50.66,113.19,113.19,113.19s108.07-45.73,112.8-103.85c.26,3.34.39,6.68.39,10.08Z" fill="#f5cf9f"/>
      <path d="M2917.79,1545.46c0-39.23,31.78-71.01,71.01-71.01s71.03,31.78,71.03,71.01-31.8,71.03-71.03,71.03c-1.82,0-3.61-.07-5.4-.21,31.14-2.53,55.61-28.62,55.61-60.42,0-33.46-27.13-60.61-60.61-60.61s-57.87,24.49-60.4,55.61c-.14-1.79-.21-3.58-.21-5.4Z" fill="#f5cf9f"/>
      <path d="M3317.6,1698.88c0,23.4-18.96,42.36-42.36,42.36s-42.37-18.96-42.37-42.36,18.97-42.37,42.37-42.37c1.09,0,2.15.04,3.22.12-18.58,1.51-33.18,17.08-33.18,36.05,0,19.96,16.18,36.16,36.16,36.16s34.52-14.61,36.03-33.18c.08,1.07.12,2.13.12,3.22Z" fill="#f5cf9f"/>
      <path d="M3386.3,1321.07c-16.53,1.91-31.46-9.93-33.37-26.46s9.93-31.47,26.46-33.38c16.53-1.91,31.47,9.94,33.38,26.46.09.77.15,1.52.17,2.28-2.58-12.99-14.76-22.03-28.16-20.49-14.1,1.63-24.21,14.38-22.58,28.48,1.55,13.4,13.13,23.19,26.37,22.74-.75.15-1.5.26-2.26.35Z" fill="#f5cf9f"/>
      <path d="M3211.66,1196.73c0,33.31-26.99,60.3-60.3,60.3s-60.32-26.99-60.32-60.3,27-60.32,60.32-60.32c1.55,0,3.07.06,4.58.18-26.45,2.15-47.23,24.31-47.23,51.31,0,28.42,23.04,51.47,51.47,51.47s49.15-20.8,51.3-47.23c.12,1.52.18,3.04.18,4.58Z" fill="#f5cf9f"/>
      <path d="M2823.79,1214.67c0,23.4-18.96,42.36-42.36,42.36s-42.37-18.96-42.37-42.36,18.97-42.37,42.37-42.37c1.09,0,2.15.04,3.22.12-18.58,1.51-33.18,17.08-33.18,36.05,0,19.96,16.18,36.16,36.16,36.16s34.52-14.61,36.03-33.18c.08,1.07.12,2.13.12,3.22Z" fill="#f5cf9f"/>
      <path d="M3414.25,1266.06c23.62,14.04,31.38,44.56,17.34,68.18-14.04,23.62-44.56,31.39-68.19,17.35-23.62-14.04-31.38-44.57-17.34-68.2.65-1.1,1.33-2.15,2.06-3.18-9.62,19.66-2.67,43.73,16.47,55.12,20.15,11.98,46.21,5.36,58.2-14.8,11.38-19.15,5.97-43.61-11.86-56.28,1.13.56,2.23,1.15,3.33,1.81Z" fill="#f5cf9f"/>
      <path d="M2966.39,1167.62c-23.38,0-23.42,36.34,0,36.34s23.42-36.34,0-36.34Z" fill="#f5cf9f"/>
      <path d="M3071.51,1770.28c-23.38,0-23.42,36.34,0,36.34s23.42-36.34,0-36.34Z" fill="#f5cf9f"/>
      <path d="M3316.77,1468.43c-17.11,0-33.49,15.04-32.7,32.7.79,17.72,14.37,32.7,32.7,32.7,17.11,0,33.49-15.04,32.7-32.7-.79-17.72-14.37-32.7-32.7-32.7Z" fill="#f5cf9f"/>
      <path d="M3167.98,1141.48c-18.8,0-36.81,16.65-35.94,36.21.87,19.62,15.79,36.21,35.94,36.21,18.8,0,36.81-16.65,35.94-36.21-.87-19.62-15.79-36.21-35.94-36.21Z" fill="#f5cf9f"/>
      <path d="M2885.8,967.38c-17.11,0-33.49,15.04-32.7,32.7.79,17.72,14.37,32.7,32.7,32.7,17.11,0,33.49-15.04,32.7-32.7-.79-17.72-14.37-32.7-32.7-32.7Z" fill="#f5cf9f"/>
      <path d="M2714.12,1405.36c-17.11,0-33.49,15.04-32.7,32.7.79,17.72,14.37,32.7,32.7,32.7,17.11,0,33.49-15.04,32.7-32.7-.79-17.72-14.37-32.7-32.7-32.7Z" fill="#f5cf9f"/>
      <path d="M3414.88,1826.23c-46.22,0-90.49,40.64-88.35,88.35,2.14,47.87,38.82,88.35,88.35,88.35,46.22,0,90.49-40.64,88.35-88.35-2.14-47.87-38.82-88.35-88.35-88.35Z" fill="#f8e0c2"/>
      <path d="M3440.63,1848.18c35.8,14.22,53.28,54.75,39.05,90.54-14.22,35.8-54.75,53.29-90.55,39.07-35.8-14.22-53.29-54.77-39.06-90.56.66-1.66,1.37-3.27,2.15-4.85-8.98,29.33,5.96,61.13,34.97,72.65,30.54,12.13,65.15-2.78,77.29-33.34,11.53-29.02-1.37-61.69-28.85-75.28,1.68.52,3.34,1.11,5,1.77Z" fill="#f5cf9f"/>
      <path d="M3489.17,981.27c-27.83,36.9-22.05,96.72,17.33,123.75,39.51,27.12,93.92,22.22,123.75-17.33,27.83-36.9,22.05-96.72-17.33-123.75-39.51-27.12-93.92-22.22-123.75,17.33Z" fill="#f8e0c2"/>
      <path d="M3522.21,973.93c32.91-20.01,75.79-9.56,95.8,23.35,20.01,32.91,9.57,75.8-23.34,95.82-32.91,20.01-75.81,9.56-95.83-23.35-.93-1.53-1.78-3.06-2.58-4.64,18.01,24.83,52.39,32.06,79.06,15.83,28.08-17.07,37.01-53.68,19.93-81.77-16.22-26.68-50.07-36.06-77.47-22.3,1.43-1.03,2.89-2,4.42-2.93Z" fill="#f5cf9f"/>
      <path d="M3751.25,1394.2c-23.38,0-23.42,36.34,0,36.34s23.42-36.34,0-36.34Z" fill="#f8e0c2"/>
      <path d="M3690.51,1727.58c-4.68,0-4.68,7.27,0,7.27s4.68-7.27,0-7.27Z" fill="#f8e0c2"/>
      <path d="M3762.93,1652.44c-8.18,0-8.2,12.72,0,12.72s8.2-12.72,0-12.72Z" fill="#f8e0c2"/>
      <path d="M3628.61,1021.76c-8.18,0-8.2,12.72,0,12.72s8.2-12.72,0-12.72Z" fill="#f8e0c2"/>
      <path d="M2798.21,1915.23c-8.18,0-8.2,12.72,0,12.72s8.2-12.72,0-12.72Z" fill="#f8e0c2"/>
      <path d="M3039.97,1985.31c-8.18,0-8.2,12.72,0,12.72s8.2-12.72,0-12.72Z" fill="#f8e0c2"/>
      <path d="M3585.76,1031.72c-5.5,22.75-28.38,36.72-51.13,31.22-22.75-5.5-36.73-28.39-31.23-51.13,5.5-22.75,28.4-36.73,51.14-31.23,1.06.26,2.08.55,3.1.88-18.41-2.9-36.26,8.8-40.72,27.24-4.69,19.4,7.23,38.95,26.65,43.64,18.44,4.46,36.99-6.09,42.82-23.78-.17,1.06-.38,2.1-.64,3.16Z" fill="#f5cf9f"/>
      <path d="M2572.8,1452.6c-14.24,0-26.34,12.11-26.34,26.34s12.06,26.34,26.34,26.34,26.34-12.11,26.34-26.34-12.06-26.34-26.34-26.34Z" fill="#f8e0c2"/>
      <path d="M2719.96,1760.93c-14.24,0-26.34,12.11-26.34,26.34s12.06,26.34,26.34,26.34,26.34-12.11,26.34-26.34-12.06-26.34-26.34-26.34Z" fill="#f8e0c2"/>
      <path d="M3187.49,2016.19c-12.19,0-22.55,10.36-22.55,22.55s10.32,22.55,22.55,22.55,22.55-10.36,22.55-22.55-10.32-22.55-22.55-22.55Z" fill="#f8e0c2"/>
      <path d="M2929.22,1971.68c-14.24,0-26.34,12.11-26.34,26.34s12.06,26.34,26.34,26.34,26.34-12.11,26.34-26.34-12.06-26.34-26.34-26.34Z" fill="#f8e0c2"/>
      <ellipse cx="2642.87" cy="1339.37" rx="5.84" ry="37.96" fill="#f5cf9f"/>
      <ellipse cx="3484.63" cy="1698.88" rx="5.84" ry="37.96" fill="#f5cf9f"/>
      <ellipse cx="3698.69" cy="1281.6" rx="46.09" ry="10.51" transform="translate(1202.01 4296.46) rotate(-69.48)" fill="#f5cf9f"/>
    </g>
    <g>
      <path d="M3521.92,651.06c16.35-29.79,10.71-68.42-9.31-86.58-21.04-19.08-43.4-4.23-61.53-23.09-22.09-22.98.02-56.57-21.45-77.7-18.15-17.86-39.44.73-66.04-14.54-36.41-20.91-17.76-67.97-55.26-103.38-30.14-28.46-84.57-38.08-103.03-17.12-14.01,15.91-8.63,50.96,9.25,69.18,17.39,17.72,34.38,7.08,49.67,22.21,26.88,26.6-9.99,75.03,15.07,107.2,21.69,27.84,62.49,8.51,81.67,38.22,14.62,22.64-2.57,38.61,12.12,71.15,1.41,3.12,21.95,46.67,67.35,52.76,27.53,3.69,63.97-6.42,81.49-38.32Z" fill="#34113c"/>
      <path d="M3110.96,539h0c15.91,0,28.8-12.9,28.8-28.8v-93.97l-.33.14-45.79,19.01-5.62,33.47-5.54,37.09c-2.6,17.41,10.88,33.06,28.49,33.06Z" fill="#d7815a"/>
      <path d="M3088.02,468.85c8.6-.44,21.96-2.93,33.43-12.9,12.91-11.22,16.92-26.78,17.98-39.59l-45.79,19.01-5.62,33.47Z" fill="#702e25"/>
      <path d="M3050.12,378.17c-7.37,18.55,6.04,50.07,31.62,61.9,1.99.92,22.49,9.98,44.06.59,24.39-10.62,31.41-37.71,34.36-49.12,2.09-8.06,6.37-25.55-.53-45.62-1.93-5.63-12.36-35.97-35.97-39.07-17.31-2.28-31.57,11.41-34.71,14.42-2.3,2.21-3.99,4.24-5.33,6.22-6.88,10.17-9.68,17.9-12.12,23.68-7.15,16.9-16.76,15.36-21.38,27Z" fill="#d7815a"/>
      <path d="M3167.45,379.59s-13.64-4.61-21.31,7.47c-7.67,12.08-10.15,4.5-5.79-6.28,4.36-10.77,11.16-24.67,11.16-24.67,0,0-17.63-2.63-25.36-25.96-4.5,1.97-10.5,3.99-17.74,4.83-16.93,1.96-30.32-3.7-36.46-6.81,11.91-28.32,37.6-46.42,64.69-46.21,26.36.2,43.15,17.65,46.07,20.85,28.12,30.83,14.81,78.64,2.9,91.98-2.8,3.13-7.41,8.3-14.5,9.53-6.16,1.07-15.21-.66-15.21-.66l11.54-24.06Z" fill="#34113c"/>
      <path d="M3144.84,389.77c-3.31,8.24-1.86,19.76,4.03,22.7,7.94,3.96,25.24-7.03,25.41-20.07.08-6.49-4.06-14.55-10.87-16.12-8.19-1.88-15.81,6.64-18.57,13.49Z" fill="#d7815a"/>
      <path d="M3147.62,404.88c-3.5,2.66-6.97,8.11-9.1,14.88-3.34,10.62-2.11,20.46,2.74,21.99s11.5-5.84,14.84-16.46c1.46-4.63,2.05-9.12,1.84-12.83,1.95,6.56,1.48,16.47-1.79,26.85-5.23,16.62-15.63,28.15-23.23,25.76s-9.52-17.8-4.29-34.42c4.31-13.68,12.12-23.91,18.99-25.76Z" fill="#fddfc2"/>
      <path d="M3062.13,386.64s-.07,0-.1,0c-.4-.03-9.81-.72-12.19-6.84-.39-1.01-.34-2.13.14-3.23,2.34-5.31,15.41-10.5,16.9-11.07.77-.3,1.64.08,1.94.86.3.77-.08,1.64-.86,1.94-5.16,2-13.85,6.34-15.24,9.48-.22.49-.16.77-.09.93,1.4,3.6,7.4,4.78,9.59,4.93.83.06,1.45.77,1.39,1.6-.05.79-.71,1.4-1.49,1.4Z" fill="#34113c"/>
      <g>
        <ellipse cx="3087.75" cy="362.35" rx="16.77" ry="10.63" transform="translate(1388.62 2965.89) rotate(-63.56)" fill="#f8e0c2"/>
        <path d="M3080.06,359.41c-2.22,4.47-1.45,9.37,1.73,10.95s7.56-.76,9.78-5.23c2.22-4.47,1.45-9.37-1.73-10.95-.3-.15-.61-.26-.92-.34.1.75-.05,1.62-.46,2.46-.87,1.74-2.57,2.65-3.8,2.03-.98-.49-1.37-1.79-1.06-3.18-1.38,1-2.63,2.45-3.53,4.26Z" fill="#34113c"/>
      </g>
      <path d="M3110.96,348.97c-.58,0-1.13-.34-1.38-.91-1.6-3.7-3.78-6.05-6.5-7-3.96-1.39-7.86.65-7.9.67-.73.39-1.64.11-2.03-.61-.39-.73-.12-1.63.61-2.03.2-.11,5.06-2.68,10.27-.87,3.55,1.23,6.34,4.15,8.29,8.66.33.76-.02,1.64-.78,1.97-.19.08-.4.12-.59.12Z" fill="#34113c"/>
      <ellipse cx="3089.84" cy="385.62" rx="9.27" ry="15.89" transform="translate(1368.94 2980.68) rotate(-63.56)" fill="#d76a74"/>
      <path d="M3072.87,410.13c-7.31,0-17.87-6.12-20.49-7.71-.71-.43-.93-1.35-.5-2.06s1.35-.93,2.06-.5c7.73,4.69,19.79,9.66,22.38,6,.48-.68,1.41-.84,2.09-.36.68.48.84,1.42.36,2.09-1.3,1.83-3.41,2.54-5.89,2.54Z" fill="#34113c"/>
      <path d="M3510.87,647.15c-.09,0-.18-.01-.27-.04-.45-.15-.69-.64-.54-1.09,2.44-7.31,4.73-18.82,1.72-32.15-.74-3.27-5.14-20.18-19.27-31.97-12.28-10.24-23.39-9.43-35.15-8.58-10.16.73-20.65,1.49-32.25-5-15.84-8.87-21.41-27.6-26.8-45.71-6.17-20.75-12.01-40.37-33.22-40.37-.22,0-.44,0-.66,0-.28,0-.56,0-.84,0-27.09,0-34.18-25.2-43.12-57.03-5.78-20.57-12.34-43.88-25.38-66.46-10.4-18.01-23.16-28.5-37.92-31.17-22.76-4.12-42.63,11.99-42.83,12.15-.36.3-.91.25-1.21-.12-.3-.37-.25-.91.12-1.21.2-.17,20.7-16.77,44.23-12.52,15.28,2.77,28.44,13.53,39.1,32,13.15,22.77,19.73,46.19,25.54,66.86,9.09,32.33,15.68,55.78,41.46,55.78.27,0,.54,0,.81,0,.24,0,.48,0,.72,0,22.46,0,28.47,20.21,34.84,41.6,5.29,17.78,10.76,36.17,25.99,44.7,11.15,6.24,21.39,5.5,31.29,4.79,11.58-.84,23.57-1.7,36.38,8.98,14.56,12.14,19.08,29.54,19.84,32.91,3.1,13.72.75,25.56-1.76,33.07-.12.36-.46.59-.82.59Z" fill="#591d66"/>
      <path d="M3479.66,682.78c-.24,0-.48-.1-.65-.3-.31-.36-.27-.9.09-1.21.16-.14,15.85-14.44-.22-49.26-6.71-14.55-22.22-18.12-38.63-21.91-23.64-5.46-48.09-11.1-50.39-49.29-2.75-45.69-34.5-52.77-60.02-58.46-9.98-2.23-18.61-4.15-24.15-8.11-10.09-7.21-10.71-22.14-11.57-42.8-.83-19.91-1.85-44.69-11.94-71.95-5.74-15.52-14.63-25.46-26.43-29.55-21.43-7.43-45.55,7.09-45.79,7.24-.41.25-.93.12-1.18-.28s-.12-.93.28-1.18c.25-.15,25.03-15.09,47.24-7.4,12.31,4.26,21.55,14.55,27.49,30.58,10.18,27.52,11.22,52.45,12.05,72.48.84,20.18,1.44,34.76,10.85,41.48,5.25,3.75,13.72,5.64,23.52,7.83,24.7,5.51,58.54,13.06,61.36,60.04,2.22,36.91,26.03,42.4,49.06,47.72,16.84,3.89,32.74,7.56,39.81,22.87,16.65,36.08.48,50.68-.22,51.28-.16.14-.36.21-.56.21Z" fill="#591d66"/>
      <path d="M3255.37,399.65c-.39,0-.75-.27-.84-.67-2.29-10.31-7.08-17.39-14.22-21.07-13.21-6.79-30.28.33-30.45.4-.44.19-.94-.02-1.13-.45-.19-.44.02-.94.45-1.13.73-.31,17.97-7.51,31.9-.36,7.63,3.92,12.72,11.4,15.12,22.23.1.46-.19.92-.65,1.03-.06.01-.13.02-.19.02Z" fill="#591d66"/>
      <path d="M3455.9,674.21c-.47,0-.86-.38-.86-.86,0-9.29-3.1-16.83-9.2-22.4-15.06-13.74-43.71-11.3-44-11.27-.46.05-.89-.3-.93-.78s.3-.89.78-.93c1.2-.11,29.69-2.55,45.31,11.71,6.48,5.91,9.76,13.88,9.76,23.67,0,.47-.38.86-.86.86Z" fill="#591d66"/>
      <path d="M3179.13,389.71c-.21,0-.43-.08-.59-.24-.34-.33-.36-.87-.03-1.21,10.16-10.69,11.9-37.04,11.92-37.3.03-.47.45-.83.91-.8.47.03.83.44.8.91-.07,1.11-1.8,27.23-12.39,38.38-.17.18-.4.27-.62.27Z" fill="#591d66"/>
      <path d="M3165.32,370.79c-.23,0-.46-.09-.63-.28-.32-.35-.3-.89.05-1.21,4.74-4.35,9.93-21.44,9.98-21.61.14-.45.61-.71,1.07-.58.45.14.71.62.58,1.07-.22.72-5.38,17.72-10.46,22.38-.17.15-.37.23-.58.23Z" fill="#591d66"/>
      <path d="M3188.8,335.84c-.37,0-.72-.24-.83-.62-.12-.41-12.43-41.49-47.89-45.51-35.46-4.03-53.39,27.74-53.57,28.06-.23.41-.75.57-1.17.34-.42-.23-.57-.75-.34-1.17.18-.33,18.65-33.1,55.27-28.94,36.61,4.16,49.22,46.32,49.34,46.74.13.46-.13.93-.59,1.06-.08.02-.16.03-.24.03Z" fill="#591d66"/>
      <path d="M3179.13,335.84c-.22,0-.45-.09-.62-.26-.18-.18-17.97-17.94-48.79-5.88-.44.17-.94-.04-1.11-.49-.17-.44.04-.94.49-1.11,31.93-12.49,50.47,6.09,50.65,6.28.33.34.32.88-.02,1.21-.17.16-.38.24-.6.24Z" fill="#591d66"/>
      <path d="M3102.72,326.91c-.2,0-.4-.07-.56-.21-.36-.31-.4-.85-.1-1.21,9.71-11.39,20.97-17.58,33.47-18.4,22.64-1.5,41.78,15.49,41.97,15.66.35.32.38.86.06,1.21-.32.35-.86.38-1.21.06-.19-.17-18.81-16.66-40.72-15.22-12.01.79-22.87,6.78-32.26,17.8-.17.2-.41.3-.65.3Z" fill="#591d66"/>
    </g>
    <g>
      <path d="M2507.92,1236.54s-87.73-172.35-197.23-203.4c-25.26-7.16-32.63-.11-35.11,2.37-35.95,35.81,88.24,265.84,176.04,251.85,26.02-4.14,44.44-29.02,56.3-50.82Z" fill="#412e5b"/>
      <path d="M2775.43,475.36s-38.06-57.39-43.65-78.15c-5.59-20.76-42.45-26.56-48.51-15.46,0,0-28.04-58.64-41.22-61.71s9.48,57.79,9.48,57.79c-5.31-4.79-12.84-5.12-17.34-1.61-5.6,4.37-6.4,14.56.34,20.92-4.74-4.14-11.74-4.16-16.26-.31-4.94,4.22-5.68,12.06-1.28,17.42-5.57-4.22-13.5-3.45-18.1,1.69-4.69,5.24-4.47,13.41.57,18.45,16.06,15.58,32.12,31.17,48.18,46.75l36.87,56.52,90.93-62.31Z" fill="#dc8564"/>
      <path d="M3073.49,527.48s-117.34,102.19-170.24,83.81-67.78-140.52-125.59-152.67-113.81,42.37-119.55,67.03c-5.74,24.65,98.23,188.32,202.27,199.11,104.04,10.79,201.93-101.56,201.93-101.56l11.18-95.72Z" fill="#29b1aa"/>
      <path d="M3212.69,945.85s-275.39,66.88-275.39,66.88c0,0-114.49,91.06-155.19,119.3-125.96,87.41-251.19,219.45-306.16,109.38-54.98-110.07-83.66-177.89-74.45-217.43s652.82-221.5,712.37-198.78c59.55,22.72,98.83,120.65,98.83,120.65Z" fill="#edb04c"/>
      <path d="M2726.31,1247.54c-113.31,75.1-129.47,106.48-123.65,121.3,15.27,38.92,198.79,5.83,251.25-54.54,8.4-9.67,30.64-35.26,30.16-69.63-.12-8.25-.22-15.85-4.23-21.61-22.51-32.37-148.26,22.16-153.53,24.48Z" fill="#412e5b"/>
      <path d="M2966.29,838.03s19.39-342.58,153.95-331.64c134.56,10.94,149.8,247.94,137.32,341.38-12.49,93.44-256.28,15.07-291.27-9.75Z" fill="#54c1bb"/>
      <path d="M3077.44,828.55s-350.44-89.45-400.7,22.99c-50.26,112.44-45.04,352.67,9.12,398.63,54.15,45.96,166.49,9.11,207.82-33.15,41.33-42.26-12.71-216.03,9.25-238.71,21.96-22.68,385.53,57.09,364.89-101.97-15.04-115.88-190.37-47.79-190.37-47.79Z" fill="#f1c070"/>
      <path d="M3071.95,546.15s-8.04-49.45,10.12-65.11c18.16-15.65,47.62-7.93,59.27,2.41,11.65,10.34,18.41,38.9,7.26,61.34-6.86,13.8-76.65,1.36-76.65,1.36Z" fill="#29b1aa"/>
      <path d="M3386.31,844.86l18.94,44.01s-22.59,64.22-9.21,69.42c13.38,5.2,30.73-48.43,30.73-48.43l18.24,11.19c36.73,23.2,56.01,33.56,57.85,31.07,1.77-2.4-12.66-16.72-43.27-42.96,35.94,20.85,54.92,29.83,56.96,26.92,1.96-2.79-11.74-16.56-41.11-41.3,45.54,21.69,54.1,22.69,55.11,20.93,1.02-1.75-4.11-8.69-45.7-37.5,29.64,10.31,45.15,13.99,46.53,11.06,1.43-3.06-12.54-13.34-41.92-30.83-8.94-4.4-17.87-8.79-26.81-13.19l-15.18-34.8-61.16,34.4Z" fill="#dc8564"/>
      <path d="M3179.1,552.06s-42.54-4.34-39.27,35.33c3.27,39.67,125.11,113.23,158.6,148.45,33.49,35.22,28.87,114.75,55.24,120.88,26.36,6.14,49.82-5.08,98.57-35.42,48.75-30.34-70.85-137.39-103.34-176.91-32.49-39.52-169.8-92.33-169.8-92.33Z" fill="#29b1aa"/>
    </g>
    <path d="M2802.77,1236.11c-1.67-12.38-40.71-303.84-14.7-349.35,21.07-36.87,198.77-33.77,330.61-28.24,10.51.44,18.1.76,20.98.76,2.06,0,5.65-.28,6.52-2.13,1.88-3.99-4.39-14.55-9.23-20.43l5.41-4.45c2.47,3.01,14.58,18.48,10.15,27.87-1.93,4.08-6.25,6.14-12.85,6.14-3.03,0-10.29-.3-21.27-.77-36.69-1.54-113.04-4.75-182.74-2.65-105.84,3.18-135.37,16.64-141.5,27.37-7.08,12.4-13.12,55.14-1.63,188.39,6.91,80.15,17.09,155.8,17.19,156.55l-6.94.94Z" fill="#fce2b0"/>
    <rect x="2457.96" y="1100.99" width="176.44" height="7" transform="translate(-228.65 1047.2) rotate(-22.27)" fill="#fce2b0"/>
    <path d="M2347.96,1083.99c-.71,0-1.43-.22-2.05-.67-1.56-1.13-1.91-3.32-.78-4.89l12.43-17.14c1.13-1.56,3.32-1.92,4.89-.78,1.56,1.13,1.91,3.32.78,4.89l-12.43,17.14c-.68.94-1.75,1.45-2.84,1.45Z" fill="#fce2b0"/>
    <path d="M2377.96,1105.42c-.64,0-1.29-.18-1.87-.54-1.63-1.03-2.12-3.2-1.08-4.83l8.14-12.86c1.04-1.63,3.2-2.12,4.83-1.08,1.63,1.03,2.12,3.2,1.08,4.83l-8.14,12.86c-.67,1.05-1.8,1.63-2.96,1.63Z" fill="#fce2b0"/>
    <path d="M2442.68,1253.28c-.18,0-.36-.01-.54-.04-37.5-5.77-75.08-41.11-111.7-105.04-27.02-47.17-43.48-93.31-43.64-93.77-.65-1.82.31-3.82,2.13-4.47,1.83-.65,3.82.31,4.47,2.13.64,1.81,65.13,181.21,149.8,194.23,1.91.29,3.22,2.08,2.93,3.99-.27,1.73-1.76,2.97-3.46,2.97Z" fill="#fce2b0"/>
    <path d="M2654.18,1367.43c-7.35,0-13.59-1.76-18.63-5.27-9.78-6.81-11.16-17.66-11.21-18.12-.22-1.92,1.15-3.66,3.07-3.88,1.92-.23,3.65,1.14,3.88,3.05.03.2,1.19,8.34,8.34,13.26,6.33,4.35,15.48,5.12,27.21,2.28,16.63-4.03,61.08-19.4,103.64-39.59,49.39-23.43,79.26-45.23,84.13-61.39.56-1.85,2.51-2.9,4.36-2.34,1.85.56,2.9,2.51,2.34,4.36-13.02,43.21-158.47,97.44-192.83,105.77-5.16,1.25-9.94,1.87-14.32,1.87Z" fill="#fce2b0"/>
    <path d="M2679.25,1327.7c-.64,0-1.3-.18-1.88-.55l-20.14-12.85c-1.63-1.04-2.11-3.2-1.07-4.83,1.04-1.63,3.2-2.11,4.83-1.07l20.14,12.85c1.63,1.04,2.11,3.2,1.07,4.83-.67,1.05-1.8,1.62-2.95,1.62Z" fill="#fce2b0"/>
    <path d="M2719.43,1308.14c-.62,0-1.25-.17-1.82-.51l-26.04-15.86c-1.65-1.01-2.17-3.16-1.17-4.81,1.01-1.65,3.16-2.17,4.81-1.17l26.04,15.86c1.65,1.01,2.17,3.16,1.17,4.81-.66,1.08-1.81,1.68-2.99,1.68Z" fill="#fce2b0"/>
    <path d="M2697.89,430.3c-.29,0-.58-.08-.84-.26-6.56-4.41-2.51-16.15,1.19-23.93-6.73,5.44-17.28,12.95-23.68,12.36-1.8-.16-3.22-.91-4.22-2.23-6.61-8.7,9.99-30.54,11.9-33.01.51-.65,1.45-.77,2.1-.26.65.51.77,1.45.26,2.1-6.68,8.6-15.82,24.17-11.88,29.35.48.63,1.15.97,2.1,1.05,6.85.6,22.19-11.95,27.51-16.84.55-.51,1.39-.53,1.97-.05.58.47.72,1.3.33,1.94-3.47,5.7-12.01,22.91-5.91,27.02.69.46.87,1.39.41,2.08-.29.43-.76.66-1.25.66Z" fill="#34113c"/>
    <path d="M2656.3,415.93c-.34,0-.68-.02-1-.05-6.16-.68-17.36-12.61-18.61-13.97-.56-.61-.53-1.56.08-2.12.61-.56,1.56-.53,2.12.08,3.2,3.46,12.46,12.55,16.74,13.03,2.88.32,7.08-1.42,9.99-4.15,2.13-1.99,3.25-4.19,3.15-6.18-.2-4.25-11.33-16.77-18.3-23.66-.59-.58-.59-1.53-.01-2.12.58-.59,1.53-.6,2.12-.01,1.93,1.91,18.87,18.84,19.19,25.66.13,2.88-1.32,5.91-4.1,8.51-3.24,3.04-7.76,5-11.37,5Z" fill="#34113c"/>
    <path d="M2626.15,446.36c-6.66,0-11.99-1.83-12.33-1.95-.78-.27-1.19-1.13-.92-1.91.27-.78,1.12-1.19,1.91-.92.11.04,11.5,3.93,21.12.03,1.55-.63,1.61-1.32,1.64-1.59.29-3.15-7.18-9.61-13.48-13.94-1.1-.71-1.8-1.19-1.95-1.3-.67-.47-.84-1.39-.38-2.06.46-.68,1.37-.87,2.06-.43.47.3,1.25.81,2.22,1.48,7.32,4.66,21.74,12,26.89,6.33,2.23-2.46,3.27-4.91,3.1-7.29-.25-3.37-2.91-5.62-2.93-5.64-.64-.52-.74-1.47-.22-2.11.52-.64,1.47-.74,2.11-.21.15.12,3.68,3.05,4.03,7.75.24,3.24-1.06,6.44-3.87,9.53-4.15,4.56-11.64,3.25-18.43.56,2.39,2.61,4.07,5.31,3.85,7.62-.12,1.27-.82,3-3.5,4.09-3.65,1.48-7.46,1.98-10.91,1.98Z" fill="#34113c"/>
  </g>
  <path d="M2845.94,1861.03c0,71.58-58.03,129.62-129.62,129.62h-503.56c-8.34,0-16.5-.79-24.4-2.29-59.92-11.42-105.22-64.09-105.22-127.33,0-71.59,58.03-129.62,129.62-129.62,10.64,0,20.98,1.29,30.88,3.71-.69-6.31-1.06-12.72-1.06-19.22,0-96.29,78.06-174.35,174.36-174.35,52.11,0,98.88,22.87,130.83,59.12,13.74-11.53,30.09-20.05,48.04-24.54,9.39-2.34,19.21-3.59,29.32-3.59,66.52,0,120.44,53.92,120.44,120.44,0,14.15-2.45,27.73-6.93,40.35,60.95,10.58,107.3,63.72,107.3,127.7Z" fill="#fff"/>
  <path d="M.91,2214.66l-1.83-5.71c65.25-20.94,98.18-52.02,115.87-68.72,102.26-96.47,100.14-243.98,80.36-350.73-7.26-39.21-2.61-68.77,14.22-90.38,15.79-20.27,42.11-33.61,82.83-41.99,36.28-7.46,80.95-10.34,128.25-13.39,53.63-3.45,114.43-7.37,173.8-18.76,63.95-12.26,101.58-30.55,118.4-57.58,21.26-34.14,9.71-69.67-1.46-104.04-11.03-33.94-21.45-66-.17-94.25,18.62-24.71,49.3-28.42,91.77-33.54,40.1-4.84,90.01-10.86,153.64-35.51,34.29-13.29,69.72-50.43,95.58-77.55,13.5-14.15,24.16-25.33,32.1-30.8l3.41,4.94c-7.42,5.12-18.42,16.65-31.16,30-26.26,27.53-62.22,65.23-97.76,79-64.33,24.92-114.66,30.99-155.09,35.87-42.52,5.13-70.61,8.52-87.7,31.19-19.41,25.76-9.46,56.38,1.08,88.79,11.59,35.67,23.58,72.56.85,109.06-17.77,28.55-56.65,47.71-122.36,60.3-59.74,11.46-120.74,15.39-174.55,18.85-93.44,6.02-174.13,11.22-206.73,53.07-15.71,20.18-19.98,48.18-13.05,85.6,20.06,108.22,22.09,257.87-82.14,356.19-18.04,17.02-51.61,48.71-118.15,70.06Z" fill="#edb04c"/>
  <path d="M337.21,2251.53l-5.17-3.05c41.04-69.62,51.81-161.05,32-271.74-10.53-58.88-3.12-103.28,22.67-135.74,22.42-28.22,59.58-47.77,113.6-59.78,51.15-11.36,112.46-15.23,170.88-18.22,53.03-2.71,87.77-15.07,106.19-37.78,25.31-31.2,17.73-79.19,9.71-130-4.16-26.34-8.46-53.58-8.46-79.94,0-57.53,8.96-88.86,30.91-108.15,21.14-18.56,53.84-25.01,106.79-30.4,50.74-5.17,97.19-51.11,127.22-88.75,32.78-41.07,53.65-81.46,53.86-81.86l5.34,2.74c-.21.41-21.31,41.25-54.44,82.78-19.5,24.45-39.32,44.38-58.89,59.24-24.66,18.72-49.05,29.43-72.48,31.81-51.71,5.27-83.51,11.44-103.43,28.94-20.51,18.01-28.87,48.04-28.87,103.64,0,25.89,4.26,52.89,8.39,79.01,8.24,52.17,16.01,101.44-10.98,134.72-19.56,24.11-55.72,37.19-110.55,39.99-125.42,6.41-233.06,16.53-280.09,75.73-24.66,31.04-31.68,73.87-21.47,130.95,10.28,57.46,12.34,110.65,6.1,158.09-5.82,44.29-18.89,83.91-38.84,117.75Z" fill="#edb04c"/>
  <path d="M2845.94,1861.03c0,71.58-58.03,129.62-129.62,129.62h-503.56c-8.34,0-16.5-.79-24.4-2.29,137.33-6.78,370.02-32.26,453.61-125.93,83.73-93.84,33.01-213.41-46.16-286.3,9.39-2.34,19.21-3.59,29.32-3.59,66.52,0,120.44,53.92,120.44,120.44,0,14.15-2.45,27.73-6.93,40.35,60.95,10.58,107.3,63.72,107.3,127.7Z" fill="#fdf4d5"/>
  <path d="M4000,1940.4v171c-22.12,22.5-52.91,36.46-86.96,36.46h-473.79c-7.84,0-15.52-.75-22.95-2.16-31.2-5.94-58.18-23.77-76.05-48.59-14.45-20.04-22.95-44.63-22.95-71.21s7.82-49.16,21.2-68.72c3.81-5.59,8.07-10.84,12.74-15.7.48-.5.97-1.01,1.47-1.5,2.32-2.35,4.75-4.6,7.26-6.75,18.82-16.12,42.6-26.6,68.75-28.83,3.47-.31,6.98-.46,10.53-.46,9.97,0,19.66,1.21,28.95,3.46.04,0,.07.02.11.03-.02-.16-.04-.33-.05-.49-.62-5.77-.95-11.65-.95-17.59,0-.76.01-1.52.01-2.28.03-2.16.11-4.31.22-6.44.21-4.08.57-8.12,1.08-12.11.87-6.89,2.17-13.65,3.87-20.25,17.72-68.69,78.81-119.95,152.33-122.83,2.17-.09,4.35-.13,6.54-.13,49.03,0,93.04,21.51,123.1,55.62,7.75-6.5,16.38-11.99,25.69-16.25,6.22-2.85,12.74-5.15,19.51-6.84,8.83-2.2,18.07-3.38,27.58-3.38,62.59,0,113.32,50.74,113.32,113.32,0,13.32-2.3,26.09-6.52,37.97,25.62,4.45,48.49,16.88,65.96,34.65Z" fill="#fff"/>
  <path d="M4000,1940.4v171c-22.12,22.5-52.91,36.46-86.96,36.46h-473.79c-7.84,0-15.52-.75-22.95-2.16,129.21-6.38,348.14-30.35,426.79-118.48,78.78-88.3,31.06-200.8-43.43-269.38,8.83-2.2,18.07-3.38,27.58-3.38,62.59,0,113.32,50.74,113.32,113.32,0,13.32-2.3,26.09-6.52,37.97,25.62,4.45,48.49,16.88,65.96,34.65Z" fill="#fdf4d5"/>
  <path d="M4000,1095.28v232.16c-11.8,3.81-24.39,5.87-37.46,5.87h-473.79c-7.84,0-15.52-.74-22.95-2.15-10.14-1.93-19.84-5.12-28.92-9.41-3.97-1.86-7.83-3.93-11.55-6.21-18.19-11.09-33.24-26.82-43.52-45.53-1.53-2.77-2.95-5.61-4.25-8.5-6.92-15.3-10.76-32.28-10.76-50.15,0-67.36,54.6-121.96,121.95-121.96.39,0,.78,0,1.17.01,9.6.09,18.93,1.29,27.89,3.48-.11-.96-.2-1.92-.29-2.89-.22-2.34-.39-4.69-.5-7.05-.14-2.69-.21-5.41-.21-8.14,0-6.78.41-13.47,1.22-20.04.76-6.29,1.88-12.46,3.34-18.51,4.79-19.89,13.2-38.38,24.51-54.71.48-.69.97-1.39,1.47-2.07.42-.61.86-1.22,1.31-1.82,1.59-2.17,3.24-4.29,4.93-6.37,2.09-2.57,4.26-5.07,6.5-7.5,4.99-5.43,10.34-10.52,16.01-15.23,12.18-10.12,25.85-18.51,40.64-24.79,19.69-8.38,41.37-13.01,64.12-13.01,49.03,0,93.04,21.52,123.1,55.63,12.93-10.85,28.31-18.87,45.2-23.09,8.83-2.2,18.07-3.38,27.58-3.38,62.59,0,113.32,50.73,113.32,113.32,0,13.32-2.3,26.09-6.52,37.97,5.63.98,11.13,2.34,16.46,4.07Z" fill="#fff"/>
  <path d="M4000,1095.28v232.16c-11.8,3.81-24.39,5.87-37.46,5.87h-473.79c-7.84,0-15.52-.74-22.95-2.15,60.01-2.96,139.37-9.72,215.03-24.94,6.92-1.39,13.8-2.85,20.63-4.38,5.68-1.28,11.33-2.61,16.93-3.99,43.29-10.66,83.98-24.5,117.43-42.46,22.77-12.23,42.18-26.37,56.77-42.72,78.78-88.29,31.06-200.79-43.43-269.37,8.83-2.2,18.07-3.38,27.58-3.38,62.59,0,113.32,50.73,113.32,113.32,0,13.32-2.3,26.09-6.52,37.97,5.63.98,11.13,2.34,16.46,4.07Z" fill="#fdf4d5"/>
</svg>